<svg width="32" height="32" viewBox="0 0 32 32" fill="none" xmlns="http://www.w3.org/2000/svg">
    <path d="M22 15C22 16.5913 21.3679 18.1174 20.2426 19.2426C19.1174 20.3679 17.5913 21 16 21" stroke="#28BFC9" stroke-width="2" stroke-linecap="round" stroke-linejoin="round" />
    <path d="M7.99995 24.9444C10.2603 26.9717 13.2072 28.0633 16.2428 27.9976C22.6777 27.8704 27.9093 22.6064 27.9988 16.1709C28.0215 14.5808 27.7278 13.0021 27.135 11.5265C26.5421 10.0509 25.6619 8.7078 24.5455 7.57536C23.4291 6.44291 22.0987 5.54366 20.6316 4.92987C19.1646 4.31608 17.5902 4 16 4H15V8L2 16L3.72339 18.3895C4.05204 18.8445 4.50164 19.1983 5.02117 19.4108C5.54071 19.6232 6.10939 19.6858 6.6627 19.5914C8.84615 19.2218 12.6703 19.0022 16 21L16 21L11.5957 27.166" stroke="#28BFC9" stroke-width="2" stroke-linecap="round" stroke-linejoin="round" />
    <path d="M15.5 14C16.3284 14 17 13.3284 17 12.5C17 11.6716 16.3284 11 15.5 11C14.6716 11 14 11.6716 14 12.5C14 13.3284 14.6716 14 15.5 14Z" fill="#38DFCB" />
</svg>
