<svg width="27" height="27" viewBox="0 0 27 27" fill="none" xmlns="http://www.w3.org/2000/svg">
    <path d="M25.8511 1.16889C25.3353 0.643313 24.6812 0.274412 23.9645 0.104846C23.2477 -0.0647201 22.4976 -0.0280249 21.8009 0.210688L2.69726 6.59422C1.92679 6.84633 1.2536 7.3313 0.770631 7.98218C0.287661 8.63307 0.0187228 9.41778 0.000942219 10.228C-0.0168384 11.0382 0.217415 11.8339 0.671366 12.5054C1.12532 13.1768 1.77658 13.6908 2.53525 13.9764L9.60965 16.6756C9.77074 16.7372 9.91742 16.8313 10.0405 16.952C10.1636 17.0728 10.2605 17.2176 10.3252 17.3774L13.0253 24.4627C13.3002 25.2104 13.799 25.8551 14.4537 26.3092C15.1084 26.7632 15.8872 27.0044 16.6841 26.9999H16.7786C17.59 26.9852 18.3764 26.717 19.0277 26.2329C19.679 25.7489 20.1624 25.0733 20.4103 24.3008L26.7961 5.17716C27.0284 4.48744 27.063 3.74652 26.8959 3.03818C26.7289 2.32985 26.367 1.68234 25.8511 1.16889ZM24.2985 4.32692L17.8451 23.464C17.7702 23.7062 17.6197 23.9181 17.4156 24.0687C17.2116 24.2192 16.9647 24.3006 16.7111 24.3008C16.4589 24.3049 16.2115 24.2322 16.0017 24.0924C15.7919 23.9526 15.6297 23.7522 15.5365 23.518L12.8363 16.4327C12.6406 15.9179 12.3387 15.4499 11.9503 15.0593C11.5618 14.6687 11.0956 14.3641 10.5817 14.1654L3.4938 11.4662C3.25469 11.3786 3.04916 11.2182 2.90623 11.0075C2.76329 10.7968 2.6902 10.5465 2.69726 10.2921C2.69746 10.0386 2.77882 9.79175 2.92943 9.58777C3.08005 9.38379 3.29201 9.23334 3.5343 9.15843L22.6784 2.7749C22.8982 2.68535 23.1392 2.66136 23.3724 2.70583C23.6055 2.75031 23.8208 2.86134 23.9922 3.0255C24.1635 3.18966 24.2836 3.39993 24.338 3.63089C24.3924 3.86184 24.3787 4.1036 24.2985 4.32692Z" fill="#1CBDB3" />
    <path d="M25.8511 1.16889C25.3353 0.643313 24.6812 0.274412 23.9645 0.104846C23.2477 -0.0647201 22.4976 -0.0280249 21.8009 0.210688L2.69726 6.59422C1.92679 6.84633 1.2536 7.3313 0.770631 7.98218C0.287661 8.63307 0.0187228 9.41778 0.000942219 10.228C-0.0168384 11.0382 0.217415 11.8339 0.671366 12.5054C1.12532 13.1768 1.77658 13.6908 2.53525 13.9764L9.60965 16.6756C9.77074 16.7372 9.91742 16.8313 10.0405 16.952C10.1636 17.0728 10.2605 17.2176 10.3252 17.3774L13.0253 24.4627C13.3002 25.2104 13.799 25.8551 14.4537 26.3092C15.1084 26.7632 15.8872 27.0044 16.6841 26.9999H16.7786C17.59 26.9852 18.3764 26.717 19.0277 26.2329C19.679 25.7489 20.1624 25.0733 20.4103 24.3008L26.7961 5.17716C27.0284 4.48744 27.063 3.74652 26.8959 3.03818C26.7289 2.32985 26.367 1.68234 25.8511 1.16889ZM24.2985 4.32692L17.8451 23.464C17.7702 23.7062 17.6197 23.9181 17.4156 24.0687C17.2116 24.2192 16.9647 24.3006 16.7111 24.3008C16.4589 24.3049 16.2115 24.2322 16.0017 24.0924C15.7919 23.9526 15.6297 23.7522 15.5365 23.518L12.8363 16.4327C12.6406 15.9179 12.3387 15.4499 11.9503 15.0593C11.5618 14.6687 11.0956 14.3641 10.5817 14.1654L3.4938 11.4662C3.25469 11.3786 3.04916 11.2182 2.90623 11.0075C2.76329 10.7968 2.6902 10.5465 2.69726 10.2921C2.69746 10.0386 2.77882 9.79175 2.92943 9.58777C3.08005 9.38379 3.29201 9.23334 3.5343 9.15843L22.6784 2.7749C22.8982 2.68535 23.1392 2.66136 23.3724 2.70583C23.6055 2.75031 23.8208 2.86134 23.9922 3.0255C24.1635 3.18966 24.2836 3.39993 24.338 3.63089C24.3924 3.86184 24.3787 4.1036 24.2985 4.32692Z" fill="url(#paint0_linear)" />
    <path d="M25.8511 1.16889C25.3353 0.643313 24.6812 0.274412 23.9645 0.104846C23.2477 -0.0647201 22.4976 -0.0280249 21.8009 0.210688L2.69726 6.59422C1.92679 6.84633 1.2536 7.3313 0.770631 7.98218C0.287661 8.63307 0.0187228 9.41778 0.000942219 10.228C-0.0168384 11.0382 0.217415 11.8339 0.671366 12.5054C1.12532 13.1768 1.77658 13.6908 2.53525 13.9764L9.60965 16.6756C9.77074 16.7372 9.91742 16.8313 10.0405 16.952C10.1636 17.0728 10.2605 17.2176 10.3252 17.3774L13.0253 24.4627C13.3002 25.2104 13.799 25.8551 14.4537 26.3092C15.1084 26.7632 15.8872 27.0044 16.6841 26.9999H16.7786C17.59 26.9852 18.3764 26.717 19.0277 26.2329C19.679 25.7489 20.1624 25.0733 20.4103 24.3008L26.7961 5.17716C27.0284 4.48744 27.063 3.74652 26.8959 3.03818C26.7289 2.32985 26.367 1.68234 25.8511 1.16889ZM24.2985 4.32692L17.8451 23.464C17.7702 23.7062 17.6197 23.9181 17.4156 24.0687C17.2116 24.2192 16.9647 24.3006 16.7111 24.3008C16.4589 24.3049 16.2115 24.2322 16.0017 24.0924C15.7919 23.9526 15.6297 23.7522 15.5365 23.518L12.8363 16.4327C12.6406 15.9179 12.3387 15.4499 11.9503 15.0593C11.5618 14.6687 11.0956 14.3641 10.5817 14.1654L3.4938 11.4662C3.25469 11.3786 3.04916 11.2182 2.90623 11.0075C2.76329 10.7968 2.6902 10.5465 2.69726 10.2921C2.69746 10.0386 2.77882 9.79175 2.92943 9.58777C3.08005 9.38379 3.29201 9.23334 3.5343 9.15843L22.6784 2.7749C22.8982 2.68535 23.1392 2.66136 23.3724 2.70583C23.6055 2.75031 23.8208 2.86134 23.9922 3.0255C24.1635 3.18966 24.2836 3.39993 24.338 3.63089C24.3924 3.86184 24.3787 4.1036 24.2985 4.32692Z" fill="url(#paint1_linear)" />
    <defs>
        <linearGradient id="paint0_linear" x1="13.5" y1="0" x2="13.5" y2="27" gradientUnits="userSpaceOnUse">
            <stop stop-color="#5467C8" />
            <stop offset="0.135417" stop-color="#7AA5CF" stop-opacity="0.781431" />
            <stop offset="0.276042" stop-color="#2938BA" stop-opacity="0.554455" />
            <stop offset="0.40625" stop-color="#D2D9F3" stop-opacity="0.265677" />
            <stop offset="0.5" stop-color="#388FC0" stop-opacity="0.183225" />
            <stop offset="0.708333" stop-color="white" stop-opacity="0" />
        </linearGradient>
        <linearGradient id="paint1_linear" x1="13.5" y1="0" x2="13.5" y2="27" gradientUnits="userSpaceOnUse">
            <stop stop-color="#33B5DE" />
            <stop offset="0.239583" stop-color="#00FFF0" stop-opacity="0.760417" />
            <stop offset="0.380208" stop-color="#00E0FF" stop-opacity="0.619792" />
            <stop offset="0.59375" stop-color="#11EEE1" stop-opacity="0.317274" />
            <stop offset="0.817708" stop-color="#31B2E9" stop-opacity="0" />
        </linearGradient>
    </defs>
</svg>
