<svg width="193" height="20" viewBox="0 0 193 20" fill="none" xmlns="http://www.w3.org/2000/svg">
<path d="M0 5C0 2.23858 2.23858 0 5 0H24V20H5C2.23858 20 0 17.7614 0 15V5Z" fill="#2C2C32"/>
<path fill-rule="evenodd" clip-rule="evenodd" d="M13.1293 3.65768C13.4857 4.28336 13.269 5.08042 12.6453 5.43796L8.76738 7.66095C8.66472 7.7198 8.6014 7.82906 8.6014 7.94736V11.438C8.6014 11.5564 8.66472 11.6656 8.76738 11.7244L11.8357 13.4834C11.9375 13.5417 12.0625 13.5417 12.1643 13.4834L15.2326 11.7244C15.3353 11.6656 15.3986 11.5564 15.3986 11.438V9.26724L12.6392 10.8291C12.0135 11.1832 11.2202 10.9615 10.8672 10.3339C10.5142 9.70629 10.7352 8.91042 11.3608 8.5563L15.3092 6.32145C16.5119 5.6407 18 6.51244 18 7.89776V11.7026C18 12.5938 17.524 13.4166 16.7527 13.8588L13.2282 15.8792C12.4672 16.3154 11.5329 16.3154 10.7718 15.8792L7.24732 13.8588C6.47601 13.4166 6 12.5938 6 11.7026V7.68282C6 6.79164 6.47601 5.96879 7.24732 5.52665L11.3547 3.17214C11.9784 2.81461 12.7729 3.03199 13.1293 3.65768Z" fill="url(#paint0_linear_1705_67)"/>
<path d="M24 0H187.141C189.902 0 192.141 2.23858 192.141 5V15C192.141 17.7614 189.902 20 187.141 20H24V0Z" fill="#FFB45B"/>
<path d="M71.5398 9.63636C71.5398 6.84517 69.8693 5.15341 67.6108 5.15341C65.3438 5.15341 63.6776 6.84517 63.6776 9.63636C63.6776 12.4233 65.3438 14.1193 67.6108 14.1193C69.8693 14.1193 71.5398 12.4276 71.5398 9.63636ZM70.2358 9.63636C70.2358 11.7628 69.1108 12.9176 67.6108 12.9176C66.1065 12.9176 64.9858 11.7628 64.9858 9.63636C64.9858 7.50994 66.1065 6.35511 67.6108 6.35511C69.1108 6.35511 70.2358 7.50994 70.2358 9.63636ZM73.0792 16.4545H74.3533V12.9815H74.43C74.6602 13.3991 75.1289 14.1278 76.3221 14.1278C77.9073 14.1278 79.0579 12.858 79.0579 10.7401C79.0579 8.6179 77.8903 7.36932 76.3093 7.36932C75.0948 7.36932 74.6559 8.1108 74.43 8.51562H74.3235V7.45455H73.0792V16.4545ZM74.3278 10.7273C74.3278 9.35938 74.9244 8.4517 76.0366 8.4517C77.1914 8.4517 77.771 9.42756 77.771 10.7273C77.771 12.0398 77.1744 13.0412 76.0366 13.0412C74.9414 13.0412 74.3278 12.1037 74.3278 10.7273ZM83.3065 14.1321C84.734 14.1321 85.744 13.429 86.0337 12.3636L84.8278 12.1463C84.5977 12.7642 84.0437 13.0795 83.3192 13.0795C82.2283 13.0795 81.4954 12.3722 81.4613 11.1108H86.1147V10.6591C86.1147 8.29403 84.6999 7.36932 83.217 7.36932C81.3931 7.36932 80.1914 8.75852 80.1914 10.7699C80.1914 12.8026 81.3761 14.1321 83.3065 14.1321ZM81.4656 10.1562C81.5167 9.22727 82.19 8.42188 83.2255 8.42188C84.2141 8.42188 84.8619 9.15483 84.8661 10.1562H81.4656ZM88.8026 10.1136C88.8026 9.0696 89.4418 8.47301 90.3281 8.47301C91.1932 8.47301 91.7173 9.03977 91.7173 9.99006V14H92.9915V9.83665C92.9915 8.21733 92.1009 7.36932 90.7628 7.36932C89.7784 7.36932 89.1349 7.82528 88.8324 8.51989H88.7514V7.45455H87.5284V14H88.8026V10.1136ZM97.8761 14H99.1502V7.45455H97.8761V14ZM98.5195 6.4446C98.9585 6.4446 99.3249 6.10369 99.3249 5.68608C99.3249 5.26847 98.9585 4.9233 98.5195 4.9233C98.0763 4.9233 97.7141 5.26847 97.7141 5.68608C97.7141 6.10369 98.0763 6.4446 98.5195 6.4446ZM102.138 10.1136C102.138 9.0696 102.778 8.47301 103.664 8.47301C104.529 8.47301 105.053 9.03977 105.053 9.99006V14H106.327V9.83665C106.327 8.21733 105.437 7.36932 104.099 7.36932C103.114 7.36932 102.471 7.82528 102.168 8.51989H102.087V7.45455H100.864V14H102.138V10.1136ZM117.221 8.02983H118.571C118.277 6.32955 116.824 5.15341 114.941 5.15341C112.682 5.15341 111.033 6.85369 111.033 9.64062C111.033 12.402 112.635 14.1193 115 14.1193C117.118 14.1193 118.631 12.7301 118.631 10.527V9.53409H115.201V10.6207H117.357C117.327 12.027 116.398 12.9176 115 12.9176C113.462 12.9176 112.341 11.7543 112.341 9.6321C112.341 7.51847 113.471 6.35511 114.949 6.35511C116.108 6.35511 116.892 6.99432 117.221 8.02983ZM120.61 14H121.885V7.45455H120.61V14ZM121.254 6.4446C121.693 6.4446 122.059 6.10369 122.059 5.68608C122.059 5.26847 121.693 4.9233 121.254 4.9233C120.811 4.9233 120.449 5.26847 120.449 5.68608C120.449 6.10369 120.811 6.4446 121.254 6.4446ZM126.654 7.45455H125.312V5.88636H124.038V7.45455H123.079V8.47727H124.038V12.3423C124.033 13.5312 124.941 14.1065 125.947 14.0852C126.352 14.081 126.624 14.0043 126.773 13.9489L126.543 12.8963C126.458 12.9134 126.3 12.9517 126.096 12.9517C125.683 12.9517 125.312 12.8153 125.312 12.0781V8.47727H126.654V7.45455ZM128.306 14H129.623V10.9318H131.413C133.437 10.9318 134.439 9.70881 134.439 8.09801C134.439 6.49148 133.446 5.27273 131.417 5.27273H128.306V14ZM129.623 9.81534V6.40199H131.277C132.581 6.40199 133.113 7.10938 133.113 8.09801C133.113 9.08665 132.581 9.81534 131.294 9.81534H129.623ZM138.555 14.1321C140.4 14.1321 141.606 12.7812 141.606 10.7571C141.606 8.72017 140.4 7.36932 138.555 7.36932C136.71 7.36932 135.504 8.72017 135.504 10.7571C135.504 12.7812 136.71 14.1321 138.555 14.1321ZM138.559 13.0625C137.353 13.0625 136.791 12.0099 136.791 10.7528C136.791 9.5 137.353 8.43466 138.559 8.43466C139.757 8.43466 140.319 9.5 140.319 10.7528C140.319 12.0099 139.757 13.0625 138.559 13.0625ZM145.479 14.1278C146.672 14.1278 147.141 13.3991 147.371 12.9815H147.477V14H148.722V5.27273H147.447V8.51562H147.371C147.141 8.1108 146.706 7.36932 145.487 7.36932C143.906 7.36932 142.743 8.6179 142.743 10.7401C142.743 12.858 143.889 14.1278 145.479 14.1278ZM145.76 13.0412C144.622 13.0412 144.03 12.0398 144.03 10.7273C144.03 9.42756 144.609 8.4517 145.76 8.4517C146.872 8.4517 147.469 9.35938 147.469 10.7273C147.469 12.1037 146.859 13.0412 145.76 13.0412Z" fill="white"/>
<defs>
<linearGradient id="paint0_linear_1705_67" x1="15.0319" y1="4.99706" x2="8.84477" y2="14.6933" gradientUnits="userSpaceOnUse">
<stop stop-color="#FFB45B"/>
<stop offset="1" stop-color="#FF8A00"/>
</linearGradient>
</defs>
</svg>
