<svg width="236" height="36" viewBox="0 0 236 36" fill="none" xmlns="http://www.w3.org/2000/svg">
    <path d="M60.504 28.124C60.504 30.38 59.676 32.192 58.02 33.56C56.34 34.904 54.3 35.576 51.9 35.576C49.764 35.576 47.88 34.952 46.248 33.704C44.616 32.456 43.488 30.752 42.864 28.592L46.032 27.296C46.248 28.064 46.548 28.76 46.932 29.384C47.316 30.008 47.76 30.548 48.264 31.004C48.792 31.436 49.368 31.784 49.992 32.048C50.616 32.288 51.276 32.408 51.972 32.408C53.484 32.408 54.72 32.024 55.68 31.256C56.64 30.464 57.12 29.42 57.12 28.124C57.12 27.044 56.724 26.12 55.932 25.352C55.188 24.608 53.796 23.888 51.756 23.192C49.692 22.448 48.408 21.944 47.904 21.68C45.168 20.288 43.8 18.236 43.8 15.524C43.8 13.628 44.556 12.008 46.068 10.664C47.604 9.32 49.488 8.648 51.72 8.648C53.688 8.648 55.392 9.152 56.832 10.16C58.272 11.144 59.232 12.38 59.712 13.868L56.616 15.164C56.328 14.204 55.752 13.412 54.888 12.788C54.048 12.14 53.016 11.816 51.792 11.816C50.496 11.816 49.404 12.176 48.516 12.896C47.628 13.568 47.184 14.444 47.184 15.524C47.184 16.412 47.532 17.18 48.228 17.828C48.996 18.476 50.664 19.244 53.232 20.132C55.848 21.02 57.708 22.112 58.812 23.408C59.94 24.68 60.504 26.252 60.504 28.124ZM71.2148 9.74023H84.9609C85.0312 9.74023 85.1016 9.81055 85.1719 9.95117V14.4688C85.1719 14.5273 85.1016 14.5977 84.9609 14.6797H71.2148C71.1445 14.6797 71.0742 14.6094 71.0039 14.4688V9.95117C71.0039 9.88086 71.0742 9.81055 71.2148 9.74023ZM71.2148 19.8652H84.9609C85.0312 19.8652 85.1016 19.9355 85.1719 20.0762V24.5938C85.1719 24.6641 85.1016 24.7344 84.9609 24.8047H71.2148C71.1445 24.8047 71.0742 24.7344 71.0039 24.5938V20.0762C71.0039 20.0176 71.0742 19.9473 71.2148 19.8652ZM71.2148 30.0781H84.9609C85.0312 30.0781 85.1016 30.1426 85.1719 30.2715V34.7891C85.1719 34.8594 85.1016 34.9297 84.9609 35H71.2148C71.1445 35 71.0742 34.9297 71.0039 34.7891V30.2715C71.0039 30.2129 71.0742 30.1484 71.2148 30.0781ZM108.41 9.81055H108.48C112.863 9.81055 116.273 11.7441 118.711 15.6113C119.109 16.4668 119.309 16.9355 119.309 17.0176V17.0879C116.66 18.377 115.236 19.0215 115.037 19.0215C113.912 16.0801 111.861 14.6094 108.885 14.6094C104.631 14.6094 102.135 16.6367 101.396 20.6914C101.35 21.1133 101.326 21.5176 101.326 21.9043V23.0996C101.326 26.0996 102.709 28.2852 105.475 29.6562C106.107 29.8789 107.109 30.0781 108.48 30.2539L108.551 30.3945V34.8066C108.551 34.9355 108.463 35 108.287 35C103.154 35 99.4746 32.4629 97.248 27.3887C96.6738 25.5488 96.3867 23.8965 96.3867 22.4316C96.3867 17.1699 98.6836 13.2969 103.277 10.8125C104.941 10.1445 106.652 9.81055 108.41 9.81055ZM133.224 8.81818V35H136.983V16.0412H137.225L144.947 34.9616H148.066L155.788 16.054H156.031V35H159.789V8.81818H154.995L146.66 29.1705H146.353L138.018 8.81818H133.224ZM183.855 9.77539H188.408C188.76 9.77539 189.135 10.3848 189.533 11.6035C189.674 11.8145 193.107 19.5195 199.834 34.7188C199.799 34.9062 199.611 35 199.271 35H194.859C194.473 35 194.051 34.2734 193.594 32.8203C192.75 30.9922 190.271 25.3203 186.158 15.8047H186.088C182.068 25.168 179.268 31.543 177.686 34.9297L177.334 35H172.992C172.734 35 172.547 34.9297 172.43 34.7891C178.406 21.207 182.098 12.8926 183.504 9.8457L183.855 9.77539ZM223.318 9.75781H227.959C228.029 9.75781 228.1 9.82812 228.17 9.96875V34.7891C228.17 34.8594 228.1 34.9297 227.959 35H223.652C223.312 35 222.492 33.998 221.191 31.9941C214.641 23.1582 211.266 18.5059 211.066 18.0371V10.4434C211.078 10.3496 211.125 10.3027 211.207 10.3027C218.871 20.7559 222.814 26.0938 223.037 26.3164H223.107V9.96875C223.107 9.89844 223.178 9.82812 223.318 9.75781Z" fill="#1CA0BD" />
    <path d="M25.8511 9.16889C25.3353 8.64331 24.6812 8.27441 23.9645 8.10485C23.2477 7.93528 22.4976 7.97198 21.8009 8.21069L2.69726 14.5942C1.92679 14.8463 1.2536 15.3313 0.770631 15.9822C0.287661 16.6331 0.0187228 17.4178 0.000942219 18.228C-0.0168384 19.0382 0.217415 19.8339 0.671366 20.5054C1.12532 21.1768 1.77658 21.6908 2.53525 21.9764L9.60965 24.6756C9.77074 24.7372 9.91742 24.8313 10.0405 24.952C10.1636 25.0728 10.2605 25.2176 10.3252 25.3774L13.0253 32.4627C13.3002 33.2104 13.799 33.8551 14.4537 34.3092C15.1084 34.7632 15.8872 35.0044 16.6841 34.9999H16.7786C17.59 34.9852 18.3764 34.717 19.0277 34.2329C19.679 33.7489 20.1624 33.0733 20.4103 32.3008L26.7961 13.1772C27.0284 12.4874 27.063 11.7465 26.8959 11.0382C26.7289 10.3298 26.367 9.68234 25.8511 9.16889ZM24.2985 12.3269L17.8451 31.464C17.7702 31.7062 17.6197 31.9181 17.4156 32.0687C17.2116 32.2192 16.9647 32.3006 16.7111 32.3008C16.4589 32.3049 16.2115 32.2322 16.0017 32.0924C15.7919 31.9526 15.6297 31.7522 15.5365 31.518L12.8363 24.4327C12.6406 23.9179 12.3387 23.4499 11.9503 23.0593C11.5618 22.6687 11.0956 22.3641 10.5817 22.1654L3.4938 19.4662C3.25469 19.3786 3.04916 19.2182 2.90623 19.0075C2.76329 18.7968 2.6902 18.5465 2.69726 18.2921C2.69746 18.0386 2.77882 17.7917 2.92943 17.5878C3.08005 17.3838 3.29201 17.2333 3.5343 17.1584L22.6784 10.7749C22.8982 10.6853 23.1392 10.6614 23.3724 10.7058C23.6055 10.7503 23.8208 10.8613 23.9922 11.0255C24.1635 11.1897 24.2836 11.3999 24.338 11.6309C24.3924 11.8618 24.3787 12.1036 24.2985 12.3269Z" fill="#1CBDB3" />
    <path d="M25.8511 9.16889C25.3353 8.64331 24.6812 8.27441 23.9645 8.10485C23.2477 7.93528 22.4976 7.97198 21.8009 8.21069L2.69726 14.5942C1.92679 14.8463 1.2536 15.3313 0.770631 15.9822C0.287661 16.6331 0.0187228 17.4178 0.000942219 18.228C-0.0168384 19.0382 0.217415 19.8339 0.671366 20.5054C1.12532 21.1768 1.77658 21.6908 2.53525 21.9764L9.60965 24.6756C9.77074 24.7372 9.91742 24.8313 10.0405 24.952C10.1636 25.0728 10.2605 25.2176 10.3252 25.3774L13.0253 32.4627C13.3002 33.2104 13.799 33.8551 14.4537 34.3092C15.1084 34.7632 15.8872 35.0044 16.6841 34.9999H16.7786C17.59 34.9852 18.3764 34.717 19.0277 34.2329C19.679 33.7489 20.1624 33.0733 20.4103 32.3008L26.7961 13.1772C27.0284 12.4874 27.063 11.7465 26.8959 11.0382C26.7289 10.3298 26.367 9.68234 25.8511 9.16889ZM24.2985 12.3269L17.8451 31.464C17.7702 31.7062 17.6197 31.9181 17.4156 32.0687C17.2116 32.2192 16.9647 32.3006 16.7111 32.3008C16.4589 32.3049 16.2115 32.2322 16.0017 32.0924C15.7919 31.9526 15.6297 31.7522 15.5365 31.518L12.8363 24.4327C12.6406 23.9179 12.3387 23.4499 11.9503 23.0593C11.5618 22.6687 11.0956 22.3641 10.5817 22.1654L3.4938 19.4662C3.25469 19.3786 3.04916 19.2182 2.90623 19.0075C2.76329 18.7968 2.6902 18.5465 2.69726 18.2921C2.69746 18.0386 2.77882 17.7917 2.92943 17.5878C3.08005 17.3838 3.29201 17.2333 3.5343 17.1584L22.6784 10.7749C22.8982 10.6853 23.1392 10.6614 23.3724 10.7058C23.6055 10.7503 23.8208 10.8613 23.9922 11.0255C24.1635 11.1897 24.2836 11.3999 24.338 11.6309C24.3924 11.8618 24.3787 12.1036 24.2985 12.3269Z" fill="url(#paint0_linear)" />
    <path d="M25.8511 9.16889C25.3353 8.64331 24.6812 8.27441 23.9645 8.10485C23.2477 7.93528 22.4976 7.97198 21.8009 8.21069L2.69726 14.5942C1.92679 14.8463 1.2536 15.3313 0.770631 15.9822C0.287661 16.6331 0.0187228 17.4178 0.000942219 18.228C-0.0168384 19.0382 0.217415 19.8339 0.671366 20.5054C1.12532 21.1768 1.77658 21.6908 2.53525 21.9764L9.60965 24.6756C9.77074 24.7372 9.91742 24.8313 10.0405 24.952C10.1636 25.0728 10.2605 25.2176 10.3252 25.3774L13.0253 32.4627C13.3002 33.2104 13.799 33.8551 14.4537 34.3092C15.1084 34.7632 15.8872 35.0044 16.6841 34.9999H16.7786C17.59 34.9852 18.3764 34.717 19.0277 34.2329C19.679 33.7489 20.1624 33.0733 20.4103 32.3008L26.7961 13.1772C27.0284 12.4874 27.063 11.7465 26.8959 11.0382C26.7289 10.3298 26.367 9.68234 25.8511 9.16889ZM24.2985 12.3269L17.8451 31.464C17.7702 31.7062 17.6197 31.9181 17.4156 32.0687C17.2116 32.2192 16.9647 32.3006 16.7111 32.3008C16.4589 32.3049 16.2115 32.2322 16.0017 32.0924C15.7919 31.9526 15.6297 31.7522 15.5365 31.518L12.8363 24.4327C12.6406 23.9179 12.3387 23.4499 11.9503 23.0593C11.5618 22.6687 11.0956 22.3641 10.5817 22.1654L3.4938 19.4662C3.25469 19.3786 3.04916 19.2182 2.90623 19.0075C2.76329 18.7968 2.6902 18.5465 2.69726 18.2921C2.69746 18.0386 2.77882 17.7917 2.92943 17.5878C3.08005 17.3838 3.29201 17.2333 3.5343 17.1584L22.6784 10.7749C22.8982 10.6853 23.1392 10.6614 23.3724 10.7058C23.6055 10.7503 23.8208 10.8613 23.9922 11.0255C24.1635 11.1897 24.2836 11.3999 24.338 11.6309C24.3924 11.8618 24.3787 12.1036 24.2985 12.3269Z" fill="url(#paint1_linear)" />
    <defs>
        <linearGradient id="paint0_linear" x1="13.5" y1="8" x2="13.5" y2="35" gradientUnits="userSpaceOnUse">
            <stop stop-color="#5467C8" />
            <stop offset="0.135417" stop-color="#7AA5CF" stop-opacity="0.781431" />
            <stop offset="0.276042" stop-color="#2938BA" stop-opacity="0.554455" />
            <stop offset="0.40625" stop-color="#D2D9F3" stop-opacity="0.265677" />
            <stop offset="0.5" stop-color="#388FC0" stop-opacity="0.183225" />
            <stop offset="0.708333" stop-color="white" stop-opacity="0" />
        </linearGradient>
        <linearGradient id="paint1_linear" x1="13.5" y1="8" x2="13.5" y2="35" gradientUnits="userSpaceOnUse">
            <stop stop-color="#33B5DE" />
            <stop offset="0.239583" stop-color="#00FFF0" stop-opacity="0.760417" />
            <stop offset="0.380208" stop-color="#00E0FF" stop-opacity="0.619792" />
            <stop offset="0.59375" stop-color="#11EEE1" stop-opacity="0.317274" />
            <stop offset="0.817708" stop-color="#31B2E9" stop-opacity="0" />
        </linearGradient>
    </defs>
</svg>
