<svg width="25904" height="4352" viewBox="0 0 25904 4352" fill="none" xmlns="http://www.w3.org/2000/svg">
    <path d="M5984.38 3770C6184.38 3870 6374.38 3935 6554.38 3975C7464.38 4190 8269.38 3800 8269.38 2895C8269.38 1990 7174.38 1805 6949.38 1635C6879.38 1580 6839.38 1500 6839.38 1425C6834.38 1255 6969.38 1165 7119.38 1145C7354.38 1120 7659.38 1215 7834.38 1285C7904.38 1315 7949.38 1210 7879.38 1180C7589.38 1060 7364.38 1015 7124.38 1030C6894.38 1040 6714.38 1210 6724.38 1440C6754.38 1895 7374.38 1800 7864.38 2260C8289.38 2650 8214.38 3275 7874.38 3620C7429.38 4065 6619.38 3970 6044.38 3670C5974.38 3635 5919.38 3735 5984.38 3770ZM7969.38 460C7734.38 380 7554.38 340 7414.38 320C6609.38 210 6004.38 675 6004.38 1450C6004.38 2380 7099.38 2510 7334.38 2705C7449.38 2810 7469.38 2990 7349.38 3100C7099.38 3330 6454.38 3145 6139.38 2925C6079.38 2885 6009.38 2975 6074.38 3020C6394.38 3255 6799.38 3335 7114.38 3315C7349.38 3300 7559.38 3135 7544.38 2900C7514.38 2440 6904.38 2525 6414.38 2100C5984.38 1715 6064.38 1080 6384.38 735C6779.38 305 7394.38 380 7929.38 565C7999.38 595 8039.38 485 7969.38 460ZM10443.4 2465H9643.41C9608.41 2465 9583.41 2490 9583.41 2525V3240C9583.41 3270 9608.41 3295 9643.41 3295H10778.4C10808.4 3295 10833.4 3270 10833.4 3240C10833.4 3205 10808.4 3180 10778.4 3180H9698.41V2580H10443.4C10478.4 2580 10503.4 2555 10503.4 2525C10503.4 2490 10478.4 2465 10443.4 2465ZM10778.4 1040H9643.41C9608.41 1040 9583.41 1065 9583.41 1095V1810C9583.41 1840 9608.41 1870 9643.41 1870H10443.4C10478.4 1870 10503.4 1840 10503.4 1810C10503.4 1780 10478.4 1750 10443.4 1750H9698.41V1155H10778.4C10808.4 1155 10833.4 1130 10833.4 1095C10833.4 1065 10808.4 1040 10778.4 1040ZM10778.4 3895H8983.41V440H10778.4C10808.4 440 10833.4 415 10833.4 380C10833.4 350 10808.4 325 10778.4 325H8928.41C8893.41 325 8868.41 350 8868.41 380V3955C8868.41 3985 8893.41 4010 8928.41 4010H10778.4C10808.4 4010 10833.4 3985 10833.4 3955C10833.4 3920 10808.4 3895 10778.4 3895ZM13925.1 435C13695.1 340 13450.1 290 13200.1 290C12310.1 290 11740.1 770 11490.1 1390C11295.1 1865 11295.1 2425 11490.1 2905C11740.1 3520 12310.1 4000 13200.1 4000C13450.1 4000 13695.1 3955 13925.1 3860C13955.1 3845 13970.1 3815 13955.1 3780C13945.1 3755 13905.1 3740 13880.1 3750C13665.1 3845 13435.1 3885 13200.1 3885C12360.1 3885 11825.1 3440 11590.1 2860C11410.1 2410 11410.1 1885 11590.1 1430C11825.1 860 12360.1 405 13200.1 405C13435.1 405 13665.1 450 13880.1 540C13905.1 550 13945.1 540 13955.1 510C13965.1 480 13955.1 445 13925.1 435ZM13785.1 3020C13590.1 3130 13425.1 3170 13200.1 3170C12720.1 3170 12420.1 2910 12285.1 2570C12180.1 2305 12180.1 1990 12285.1 1725C12420.1 1390 12720.1 1125 13200.1 1125C13425.1 1125 13590.1 1165 13785.1 1270C13815.1 1285 13845.1 1275 13860.1 1250C13875.1 1220 13865.1 1185 13840.1 1170C13625.1 1050 13445.1 1010 13200.1 1010C12670.1 1010 12325.1 1305 12180.1 1685C12065.1 1975 12065.1 2315 12180.1 2610C12325.1 2990 12670.1 3280 13200.1 3280C13445.1 3280 13625.1 3240 13840.1 3120C13865.1 3105 13875.1 3070 13860.1 3045C13845.1 3015 13815.1 3005 13785.1 3020ZM17507.4 3955V1695C17507.4 1635 17437.4 1610 17402.4 1665L16387.4 3115L15372.4 1660C15337.4 1615 15262.4 1635 15262.4 1695V3955C15262.4 3985 15287.4 4010 15317.4 4010C15357.4 4010 15382.4 3985 15382.4 3955V1880L16332.4 3255C16337.4 3260 16342.4 3265 16347.4 3270C16382.4 3285 16417.4 3280 16432.4 3255L17392.4 1880V3955C17392.4 3985 17417.4 4010 17452.4 4010C17482.4 4010 17507.4 3985 17507.4 3955ZM14657.4 3955V325C14657.4 295 14627.4 270 14592.4 270C14562.4 270 14537.4 295 14537.4 325V3955C14537.4 3985 14562.4 4010 14592.4 4010C14627.4 4010 14657.4 3985 14657.4 3955ZM18232.4 3955V325C18232.4 295 18207.4 270 18172.4 270C18142.4 270 18117.4 295 18117.4 325V3955C18117.4 3985 18142.4 4010 18172.4 4010C18207.4 4010 18232.4 3985 18232.4 3955ZM17472.4 295L16387.4 1850L15297.4 295C15277.4 265 15242.4 260 15217.4 280C15192.4 295 15182.4 335 15202.4 360L16332.4 1985C16337.4 1990 16342.4 1995 16347.4 2000C16382.4 2020 16417.4 2010 16432.4 1985L17567.4 360C17582.4 335 17577.4 295 17552.4 280C17527.4 260 17487.4 265 17472.4 295ZM19984.3 2910H20509.3C20544.3 2910 20569.3 2885 20569.3 2855C20569.3 2845 20569.3 2840 20564.3 2830L20304.3 2190C20289.3 2155 20259.3 2140 20224.3 2155C20199.3 2165 20184.3 2200 20194.3 2230L20429.3 2800H19984.3C19954.3 2800 19924.3 2825 19924.3 2855C19924.3 2885 19954.3 2910 19984.3 2910ZM19609.3 3920L19729.3 3630H20764.3L20884.3 3920C20899.3 3955 20929.3 3965 20959.3 3955C20989.3 3945 21004.3 3905 20994.3 3880L20859.3 3555C20854.3 3535 20834.3 3520 20804.3 3520H19694.3C19669.3 3520 19644.3 3530 19639.3 3555L19504.3 3880C19489.3 3905 19504.3 3945 19539.3 3955C19569.3 3965 19599.3 3955 19609.3 3920ZM18834.3 3920L20249.3 455L21664.3 3920C21674.3 3955 21709.3 3965 21739.3 3955C21769.3 3945 21779.3 3905 21769.3 3880L20304.3 285C20284.3 235 20214.3 230 20194.3 285L18729.3 3880C18714.3 3905 18729.3 3945 18759.3 3955C18789.3 3965 18824.3 3955 18834.3 3920ZM25306.6 3955V385C25306.6 305 25186.6 305 25186.6 385V3955C25186.6 4030 25306.6 4030 25306.6 3955ZM22391.6 3955V385C22391.6 305 22276.6 305 22276.6 385V3955C22276.6 4030 22391.6 4030 22391.6 3955ZM22936.6 415L24486.6 2640C24516.6 2690 24596.6 2660 24596.6 2605V385C24596.6 305 24476.6 305 24476.6 385V2420L23026.6 350C22986.6 285 22891.6 355 22936.6 415ZM24651.6 3920L23101.6 1695C23061.6 1650 22991.6 1675 22991.6 1730V3955C22991.6 4030 23111.6 4030 23111.6 3955V1915L24551.6 3990C24601.6 4050 24691.6 3985 24651.6 3920Z" fill="#1B93EA" />
    <rect width="4352" height="4352" rx="604" fill="black" />
    <path d="M2740.75 2081.88C2740.75 2231.66 2681.25 2375.3 2575.33 2481.21C2469.43 2587.13 2325.78 2646.62 2176 2646.62" stroke="white" stroke-width="200" stroke-linecap="round" stroke-linejoin="round" />
    <path d="M1423 3017.89C1635.75 3208.71 1913.13 3311.46 2198.85 3305.27C2804.54 3293.3 3296.96 2797.83 3305.39 2192.09C3307.52 2042.42 3279.88 1893.82 3224.08 1754.93C3168.28 1616.04 3085.43 1489.62 2980.35 1383.03C2875.26 1276.44 2750.04 1191.8 2611.95 1134.02C2473.87 1076.25 2325.68 1046.5 2176 1046.5H2081.88V1423L858.25 2176L1020.46 2400.91C1051.4 2443.74 1093.72 2477.04 1142.62 2497.04C1191.52 2517.03 1245.05 2522.93 1297.13 2514.04C1502.64 2479.25 1862.59 2458.58 2176 2646.62L1761.45 3227" stroke="white" stroke-width="200" stroke-linecap="round" stroke-linejoin="round" />
    <path d="M2128.94 1987.75C2206.91 1987.75 2270.12 1924.54 2270.12 1846.56C2270.12 1768.59 2206.91 1705.38 2128.94 1705.38C2050.96 1705.38 1987.75 1768.59 1987.75 1846.56C1987.75 1924.54 2050.96 1987.75 2128.94 1987.75Z" fill="#44EDD9" />
</svg>
