<svg width="187" height="32" viewBox="0 0 187 32" fill="none" xmlns="http://www.w3.org/2000/svg">
    <path d="M44.9432 27.668C46.3832 28.388 47.7512 28.856 49.0472 29.144C55.5992 30.692 61.3952 27.884 61.3952 21.368C61.3952 14.852 53.5112 13.52 51.8912 12.296C51.3872 11.9 51.0992 11.324 51.0992 10.784C51.0632 9.56 52.0352 8.912 53.1152 8.768C54.8072 8.588 57.0032 9.272 58.2632 9.776C58.7672 9.992 59.0912 9.236 58.5872 9.02C56.4992 8.156 54.8792 7.832 53.1512 7.94C51.4952 8.012 50.1992 9.236 50.2712 10.892C50.4872 14.168 54.9512 13.484 58.4792 16.796C61.5392 19.604 60.9992 24.104 58.5512 26.588C55.3472 29.792 49.5152 29.108 45.3752 26.948C44.8712 26.696 44.4752 27.416 44.9432 27.668ZM59.2352 3.836C57.5432 3.26 56.2472 2.972 55.2392 2.828C49.4432 2.036 45.0872 5.384 45.0872 10.964C45.0872 17.66 52.9712 18.596 54.6632 20C55.4912 20.756 55.6352 22.052 54.7712 22.844C52.9712 24.5 48.3272 23.168 46.0592 21.584C45.6272 21.296 45.1232 21.944 45.5912 22.268C47.8952 23.96 50.8112 24.536 53.0792 24.392C54.7712 24.284 56.2832 23.096 56.1752 21.404C55.9592 18.092 51.5672 18.704 48.0392 15.644C44.9432 12.872 45.5192 8.3 47.8232 5.816C50.6672 2.72 55.0952 3.26 58.9472 4.592C59.4512 4.808 59.7392 4.016 59.2352 3.836ZM77.0481 18.272H71.2881C71.0361 18.272 70.8561 18.452 70.8561 18.704V23.852C70.8561 24.068 71.0361 24.248 71.2881 24.248H79.4601C79.6761 24.248 79.8561 24.068 79.8561 23.852C79.8561 23.6 79.6761 23.42 79.4601 23.42H71.6841V19.1H77.0481C77.3001 19.1 77.4801 18.92 77.4801 18.704C77.4801 18.452 77.3001 18.272 77.0481 18.272ZM79.4601 8.012H71.2881C71.0361 8.012 70.8561 8.192 70.8561 8.408V13.556C70.8561 13.772 71.0361 13.988 71.2881 13.988H77.0481C77.3001 13.988 77.4801 13.772 77.4801 13.556C77.4801 13.34 77.3001 13.124 77.0481 13.124H71.6841V8.84H79.4601C79.6761 8.84 79.8561 8.66 79.8561 8.408C79.8561 8.192 79.6761 8.012 79.4601 8.012ZM79.4601 28.568H66.5361V3.692H79.4601C79.6761 3.692 79.8561 3.512 79.8561 3.26C79.8561 3.044 79.6761 2.864 79.4601 2.864H66.1401C65.8881 2.864 65.7081 3.044 65.7081 3.26V29C65.7081 29.216 65.8881 29.396 66.1401 29.396H79.4601C79.6761 29.396 79.8561 29.216 79.8561 29C79.8561 28.748 79.6761 28.568 79.4601 28.568ZM102.117 3.656C100.461 2.972 98.6965 2.612 96.8965 2.612C90.4885 2.612 86.3845 6.068 84.5845 10.532C83.1805 13.952 83.1805 17.984 84.5845 21.44C86.3845 25.868 90.4885 29.324 96.8965 29.324C98.6965 29.324 100.461 29 102.117 28.316C102.333 28.208 102.441 27.992 102.333 27.74C102.261 27.56 101.973 27.452 101.793 27.524C100.245 28.208 98.5885 28.496 96.8965 28.496C90.8485 28.496 86.9965 25.292 85.3045 21.116C84.0085 17.876 84.0085 14.096 85.3045 10.82C86.9965 6.716 90.8485 3.44 96.8965 3.44C98.5885 3.44 100.245 3.764 101.793 4.412C101.973 4.484 102.261 4.412 102.333 4.196C102.405 3.98 102.333 3.728 102.117 3.656ZM101.109 22.268C99.7045 23.06 98.5165 23.348 96.8965 23.348C93.4405 23.348 91.2805 21.476 90.3085 19.028C89.5525 17.12 89.5525 14.852 90.3085 12.944C91.2805 10.532 93.4405 8.624 96.8965 8.624C98.5165 8.624 99.7045 8.912 101.109 9.668C101.325 9.776 101.541 9.704 101.648 9.524C101.757 9.308 101.685 9.056 101.505 8.948C99.9565 8.084 98.6605 7.796 96.8965 7.796C93.0805 7.796 90.5965 9.92 89.5525 12.656C88.7245 14.744 88.7245 17.192 89.5525 19.316C90.5965 22.052 93.0805 24.14 96.8965 24.14C98.6605 24.14 99.9565 23.852 101.505 22.988C101.685 22.88 101.757 22.628 101.648 22.448C101.541 22.232 101.325 22.16 101.109 22.268ZM127.909 29V12.728C127.909 12.296 127.405 12.116 127.153 12.512L119.845 22.952L112.537 12.476C112.285 12.152 111.745 12.296 111.745 12.728V29C111.745 29.216 111.925 29.396 112.141 29.396C112.429 29.396 112.609 29.216 112.609 29V14.06L119.449 23.96C119.485 23.996 119.521 24.032 119.557 24.068C119.809 24.176 120.061 24.14 120.169 23.96L127.081 14.06V29C127.081 29.216 127.261 29.396 127.513 29.396C127.729 29.396 127.909 29.216 127.909 29ZM107.389 29V2.864C107.389 2.648 107.173 2.468 106.921 2.468C106.705 2.468 106.525 2.648 106.525 2.864V29C106.525 29.216 106.705 29.396 106.921 29.396C107.173 29.396 107.389 29.216 107.389 29ZM133.129 29V2.864C133.129 2.648 132.949 2.468 132.697 2.468C132.481 2.468 132.301 2.648 132.301 2.864V29C132.301 29.216 132.481 29.396 132.697 29.396C132.949 29.396 133.129 29.216 133.129 29ZM127.657 2.648L119.845 13.844L111.997 2.648C111.853 2.432 111.601 2.396 111.421 2.54C111.241 2.648 111.169 2.936 111.313 3.116L119.449 14.816C119.485 14.852 119.521 14.888 119.557 14.924C119.809 15.068 120.061 14.996 120.169 14.816L128.341 3.116C128.449 2.936 128.413 2.648 128.233 2.54C128.053 2.396 127.765 2.432 127.657 2.648ZM145.743 21.476H149.523C149.775 21.476 149.955 21.296 149.955 21.08C149.955 21.008 149.955 20.972 149.919 20.9L148.047 16.292C147.939 16.04 147.723 15.932 147.471 16.04C147.291 16.112 147.183 16.364 147.255 16.58L148.947 20.684H145.743C145.527 20.684 145.311 20.864 145.311 21.08C145.311 21.296 145.527 21.476 145.743 21.476ZM143.043 28.748L143.907 26.66H151.359L152.223 28.748C152.331 29 152.547 29.072 152.763 29C152.979 28.928 153.087 28.64 153.015 28.46L152.043 26.12C152.007 25.976 151.863 25.868 151.647 25.868H143.655C143.475 25.868 143.295 25.94 143.259 26.12L142.287 28.46C142.179 28.64 142.287 28.928 142.539 29C142.755 29.072 142.971 29 143.043 28.748ZM137.463 28.748L147.651 3.8L157.839 28.748C157.911 29 158.163 29.072 158.379 29C158.595 28.928 158.667 28.64 158.595 28.46L148.047 2.576C147.903 2.216 147.399 2.18 147.255 2.576L136.707 28.46C136.599 28.64 136.707 28.928 136.923 29C137.139 29.072 137.391 29 137.463 28.748ZM184.063 29V3.296C184.063 2.72 183.199 2.72 183.199 3.296V29C183.199 29.54 184.063 29.54 184.063 29ZM163.075 29V3.296C163.075 2.72 162.247 2.72 162.247 3.296V29C162.247 29.54 163.075 29.54 163.075 29ZM166.999 3.512L178.159 19.532C178.375 19.892 178.951 19.676 178.951 19.28V3.296C178.951 2.72 178.087 2.72 178.087 3.296V17.948L167.647 3.044C167.359 2.576 166.675 3.08 166.999 3.512ZM179.347 28.748L168.187 12.728C167.899 12.404 167.395 12.584 167.395 12.98V29C167.395 29.54 168.259 29.54 168.259 29V14.312L178.627 29.252C178.987 29.684 179.635 29.216 179.347 28.748Z" fill="#1B93EA" />
    <path d="M22 15C22 16.5913 21.3679 18.1174 20.2426 19.2426C19.1174 20.3679 17.5913 21 16 21" stroke="#28BFC9" stroke-width="2" stroke-linecap="round" stroke-linejoin="round" />
    <path d="M7.99995 24.9444C10.2603 26.9717 13.2072 28.0633 16.2428 27.9976C22.6777 27.8704 27.9093 22.6064 27.9988 16.1709C28.0215 14.5808 27.7278 13.0021 27.135 11.5265C26.5421 10.0509 25.6619 8.7078 24.5455 7.57536C23.4291 6.44291 22.0987 5.54366 20.6316 4.92987C19.1646 4.31608 17.5902 4 16 4H15V8L2 16L3.72339 18.3895C4.05204 18.8445 4.50164 19.1983 5.02117 19.4108C5.54071 19.6232 6.10939 19.6858 6.6627 19.5914C8.84615 19.2218 12.6703 19.0022 16 21L16 21L11.5957 27.166" stroke="#28BFC9" stroke-width="2" stroke-linecap="round" stroke-linejoin="round" />
    <path d="M15.5 14C16.3284 14 17 13.3284 17 12.5C17 11.6716 16.3284 11 15.5 11C14.6716 11 14 11.6716 14 12.5C14 13.3284 14.6716 14 15.5 14Z" fill="#38DFCB" />
</svg>
