<svg width="52" height="51" viewBox="0 0 52 51" fill="none" xmlns="http://www.w3.org/2000/svg">
<path d="M41.8545 20.3421L42.5973 18.4852L41.8545 20.3421ZM44.8198 26.3057L42.8909 25.7772V25.7772L44.8198 26.3057ZM27.8564 14.7429L27.1136 16.5998L27.8564 14.7429ZM24.1425 14.7429L24.8853 16.5998L24.1425 14.7429ZM10.1444 20.3421L9.40159 18.4852V18.4852L10.1444 20.3421ZM7.17903 26.3057L5.25012 26.8341L7.17903 26.3057ZM9.35534 34.2492L7.42643 34.7777L7.92535 36.5987L9.77208 36.2053L9.35534 34.2492ZM15.9793 35.2562L15 37L15 37L15.9793 35.2562ZM21.354 35.2562L22.3333 37L22.3333 37L21.354 35.2562ZM30.6459 35.2562L29.6666 37L29.6666 37L30.6459 35.2562ZM36.0207 35.2562L35.0414 33.5123L35.0414 33.5123L36.0207 35.2562ZM42.6436 34.249L42.2271 36.2051L44.0736 36.5983L44.5725 34.7774L42.6436 34.249ZM41.1117 22.1991C42.5284 22.7658 43.2941 24.3056 42.8909 25.7772L46.7487 26.8341C47.6895 23.4004 45.9029 19.8074 42.5973 18.4852L41.1117 22.1991ZM27.1136 16.5998L41.1117 22.1991L42.5973 18.4852L28.5992 12.8859L27.1136 16.5998ZM24.8853 16.5998C25.6005 16.3137 26.3984 16.3137 27.1136 16.5998L28.5992 12.8859C26.9303 12.2184 25.0686 12.2184 23.3997 12.8859L24.8853 16.5998ZM10.8872 22.1991L24.8853 16.5998L23.3997 12.8859L9.40159 18.4852L10.8872 22.1991ZM9.10795 25.7772C8.70477 24.3056 9.47043 22.7658 10.8872 22.1991L9.40159 18.4852C6.09591 19.8074 4.30935 23.4003 5.25012 26.8341L9.10795 25.7772ZM11.2843 33.7207L9.10795 25.7772L5.25012 26.8341L7.42643 34.7777L11.2843 33.7207ZM16.9586 33.5123C14.4883 32.1251 11.6335 31.719 8.93861 32.2931L9.77208 36.2053C11.5296 35.8309 13.3903 36.096 15 37L16.9586 33.5123ZM20.3747 33.5123C19.3139 34.108 18.0194 34.108 16.9586 33.5123L15 37C17.2772 38.2788 20.0561 38.2788 22.3333 37L20.3747 33.5123ZM31.6252 33.5123C28.1317 31.5504 23.8683 31.5504 20.3747 33.5123L22.3333 37C24.6105 35.7212 27.3894 35.7212 29.6666 37L31.6252 33.5123ZM35.0414 33.5123C33.9806 34.108 32.686 34.108 31.6252 33.5123L29.6666 37C31.9438 38.2788 34.7228 38.2788 37 37L35.0414 33.5123ZM43.0601 32.2928C40.3656 31.7191 37.5112 32.1253 35.0414 33.5123L37 37C38.6094 36.0962 40.4698 35.8309 42.2271 36.2051L43.0601 32.2928ZM42.8909 25.7772L40.7147 33.7205L44.5725 34.7774L46.7487 26.8341L42.8909 25.7772Z" fill="#5C5C5C"/>
<path d="M23.9995 14.3853V17.3491H27.9995V14.3853H23.9995ZM23.9995 17.3491V34.0409H27.9995V17.3491H23.9995Z" fill="#5C5C5C"/>
<path d="M17.9995 8H15.9995V10H17.9995V8ZM33.9995 8V10H35.9995V8H33.9995ZM19.9995 3.5C19.9995 3.77614 19.7757 4 19.4995 4V0C17.5665 0 15.9995 1.567 15.9995 3.5H19.9995ZM19.9995 7.4V3.5H15.9995V7.4H19.9995ZM19.9995 8V7.4H15.9995V8H19.9995ZM17.9995 10H19.9995V6H17.9995V10ZM19.9995 10H31.9995V6H19.9995V10ZM31.9995 10H33.9995V6H31.9995V10ZM31.9995 7.4V8H35.9995V7.4H31.9995ZM31.9995 3.5V7.4H35.9995V3.5H31.9995ZM32.4995 4C32.2234 4 31.9995 3.77614 31.9995 3.5H35.9995C35.9995 1.567 34.4325 0 32.4995 0V4ZM31.7138 4H32.4995V0H31.7138V4ZM29.4281 4H31.7138V0H29.4281V4ZM22.5709 4H29.4281V0H22.5709V4ZM20.2852 4H22.5709V0H20.2852V4ZM19.4995 4H20.2852V0H19.4995V4Z" fill="#5C5C5C"/>
<path d="M39.9995 19.6004L39.2567 21.4573L41.9995 22.5544V19.6004H39.9995ZM27.8565 14.7431L28.5992 12.8862L27.8565 14.7431ZM24.1426 14.7431L24.8853 16.6001L24.1426 14.7431ZM11.9995 19.6004H9.99951V22.5544L12.7423 21.4573L11.9995 19.6004ZM14.4995 6C12.0142 6 9.99951 8.01472 9.99951 10.5H13.9995C13.9995 10.2239 14.2234 10 14.4995 10V6ZM15.9995 6H14.4995V10H15.9995V6ZM19.9995 6H15.9995V10H19.9995V6ZM31.9995 6H19.9995V10H31.9995V6ZM35.9995 6H31.9995V10H35.9995V6ZM37.4995 6H35.9995V10H37.4995V6ZM41.9995 10.5C41.9995 8.01472 39.9848 6 37.4995 6V10C37.7757 10 37.9995 10.2239 37.9995 10.5H41.9995ZM41.9995 17V10.5H37.9995V17H41.9995ZM41.9995 18V17H37.9995V18H41.9995ZM41.9995 19.6004V18H37.9995V19.6004H41.9995ZM27.1137 16.6001L39.2567 21.4573L40.7423 17.7434L28.5992 12.8862L27.1137 16.6001ZM24.8853 16.6001C25.6006 16.314 26.3985 16.314 27.1137 16.6001L28.5992 12.8862C26.9304 12.2186 25.0687 12.2186 23.3998 12.8862L24.8853 16.6001ZM12.7423 21.4573L24.8853 16.6001L23.3998 12.8862L11.2567 17.7434L12.7423 21.4573ZM9.99951 18V19.6004H13.9995V18H9.99951ZM9.99951 17V18H13.9995V17H9.99951ZM9.99951 10.5V17H13.9995V10.5H9.99951Z" fill="#5C5C5C"/>
<path d="M7.66676 42L6.68747 40.2562L6.68747 40.2562L7.66676 42ZM14.0208 43.7438C14.9839 44.2847 16.2031 43.9424 16.7439 42.9793C17.2848 42.0162 16.9425 40.797 15.9794 40.2562L14.0208 43.7438ZM2.53411 40.7599C1.46966 40.4649 0.367622 41.0887 0.0726388 42.1531C-0.222345 43.2176 0.401433 44.3196 1.46589 44.6146L2.53411 40.7599ZM22.3334 42L23.3127 43.7438L23.3127 43.7438L22.3334 42ZM29.6668 42L28.6875 43.7438L29.6668 42ZM15.9794 40.2562C15.0163 39.7153 13.7971 40.0576 13.2563 41.0207C12.7154 41.9838 13.0577 43.203 14.0208 43.7438L15.9794 40.2562ZM37.0001 42L36.0208 40.2562V40.2562L37.0001 42ZM44.3334 42L45.3127 40.2562V40.2562L44.3334 42ZM50.5341 44.6146C51.5985 44.3197 52.2223 43.2177 51.9274 42.1532C51.6324 41.0887 50.5304 40.4649 49.4659 40.7599L50.5341 44.6146ZM8.64606 43.7438C10.3151 42.8066 12.3518 42.8066 14.0208 43.7438L15.9794 40.2562C13.094 38.6358 9.57286 38.6358 6.68747 40.2562L8.64606 43.7438ZM6.68747 40.2562C5.40894 40.9741 3.91423 41.1423 2.53411 40.7599L1.46589 44.6146C3.85087 45.2755 6.43495 44.9855 8.64606 43.7438L6.68747 40.2562ZM23.3127 43.7438C24.9817 42.8066 27.0185 42.8066 28.6875 43.7438L30.6461 40.2562C27.7607 38.6358 24.2395 38.6358 21.3541 40.2562L23.3127 43.7438ZM21.3541 40.2562C19.6851 41.1934 17.6484 41.1934 15.9794 40.2562L14.0208 43.7438C16.9062 45.3642 20.4273 45.3642 23.3127 43.7438L21.3541 40.2562ZM37.9794 43.7438C39.6484 42.8066 41.6851 42.8066 43.3541 43.7438L45.3127 40.2562C42.4273 38.6358 38.9062 38.6358 36.0208 40.2562L37.9794 43.7438ZM36.0208 40.2562C34.3518 41.1934 32.3151 41.1934 30.6461 40.2562L28.6875 43.7438C31.5729 45.3642 35.094 45.3642 37.9794 43.7438L36.0208 40.2562ZM49.4659 40.7599C48.0859 41.1423 46.5912 40.9741 45.3127 40.2562L43.3541 43.7438C45.5652 44.9855 48.1491 45.2755 50.5341 44.6146L49.4659 40.7599Z" fill="#5C5C5C"/>
<path d="M9.64408 45.1924C8.55714 45.389 7.83536 46.4294 8.03192 47.5164C8.22849 48.6033 9.26898 49.3251 10.3559 49.1285L9.64408 45.1924ZM14.0208 49.7438C14.9839 50.2847 16.2031 49.9424 16.7439 48.9793C17.2848 48.0162 16.9425 46.797 15.9794 46.2562L14.0208 49.7438ZM22.3334 48L21.3541 46.2562V46.2562L22.3334 48ZM29.6668 48L28.6875 49.7438L29.6668 48ZM15.9794 46.2562C15.0163 45.7153 13.7971 46.0576 13.2563 47.0207C12.7154 47.9838 13.0577 49.203 14.0208 49.7438L15.9794 46.2562ZM37.0001 48L36.0208 46.2562L36.0208 46.2562L37.0001 48ZM41.6441 49.1285C42.7311 49.3251 43.7715 48.6032 43.9681 47.5163C44.1646 46.4294 43.4428 45.3889 42.3559 45.1923L41.6441 49.1285ZM10.3559 49.1285C11.5946 48.9045 12.8919 49.1099 14.0208 49.7438L15.9794 46.2562C14.0271 45.1598 11.7838 44.8054 9.64408 45.1924L10.3559 49.1285ZM23.3127 49.7438C24.9817 48.8066 27.0185 48.8066 28.6875 49.7438L30.6461 46.2562C27.7607 44.6358 24.2395 44.6358 21.3541 46.2562L23.3127 49.7438ZM21.3541 46.2562C19.6851 47.1934 17.6484 47.1934 15.9794 46.2562L14.0208 49.7438C16.9062 51.3642 20.4273 51.3642 23.3127 49.7438L21.3541 46.2562ZM37.9794 49.7438C39.1083 49.1099 40.4055 48.9045 41.6441 49.1285L42.3559 45.1923C40.2162 44.8055 37.9731 45.1598 36.0208 46.2562L37.9794 49.7438ZM36.0208 46.2562C34.3518 47.1934 32.3151 47.1934 30.6461 46.2562L28.6875 49.7438C31.5729 51.3642 35.094 51.3642 37.9794 49.7438L36.0208 46.2562Z" fill="#5C5C5C"/>
</svg>
