<svg width="413" height="64" viewBox="0 0 413 64" fill="none" xmlns="http://www.w3.org/2000/svg">
<path d="M112.896 49.776C112.896 53.7867 111.424 57.008 108.48 59.44C105.493 61.8293 101.867 63.024 97.6 63.024C93.8027 63.024 90.4533 61.9147 87.552 59.696C84.6507 57.4773 82.6453 54.448 81.536 50.608L87.168 48.304C87.552 49.6693 88.0853 50.9067 88.768 52.016C89.4507 53.1253 90.24 54.0853 91.136 54.896C92.0747 55.664 93.0987 56.2827 94.208 56.752C95.3173 57.1787 96.4907 57.392 97.728 57.392C100.416 57.392 102.613 56.7093 104.32 55.344C106.027 53.936 106.88 52.08 106.88 49.776C106.88 47.856 106.176 46.2133 104.768 44.848C103.445 43.5253 100.971 42.2453 97.344 41.008C93.6747 39.6853 91.392 38.7893 90.496 38.32C85.632 35.8453 83.2 32.1973 83.2 27.376C83.2 24.0053 84.544 21.1253 87.232 18.736C89.9627 16.3467 93.312 15.152 97.28 15.152C100.779 15.152 103.808 16.048 106.368 17.84C108.928 19.5893 110.635 21.7867 111.488 24.432L105.984 26.736C105.472 25.0293 104.448 23.6213 102.912 22.512C101.419 21.36 99.584 20.784 97.408 20.784C95.104 20.784 93.1627 21.424 91.584 22.704C90.0053 23.8987 89.216 25.456 89.216 27.376C89.216 28.9547 89.8347 30.32 91.072 31.472C92.4373 32.624 95.4027 33.9893 99.968 35.568C104.619 37.1467 107.925 39.088 109.888 41.392C111.893 43.6533 112.896 46.448 112.896 49.776ZM130.125 17.0938H154.562C154.688 17.0938 154.812 17.2188 154.938 17.4688V25.5C154.938 25.6042 154.812 25.7292 154.562 25.875H130.125C130 25.875 129.875 25.75 129.75 25.5V17.4688C129.75 17.3438 129.875 17.2188 130.125 17.0938ZM130.125 35.0938H154.562C154.688 35.0938 154.812 35.2188 154.938 35.4688V43.5C154.938 43.625 154.812 43.75 154.562 43.875H130.125C130 43.875 129.875 43.75 129.75 43.5V35.4688C129.75 35.3646 129.875 35.2396 130.125 35.0938ZM130.125 53.25H154.562C154.688 53.25 154.812 53.3646 154.938 53.5938V61.625C154.938 61.75 154.812 61.875 154.562 62H130.125C130 62 129.875 61.875 129.75 61.625V53.5938C129.75 53.4896 129.875 53.375 130.125 53.25ZM196.25 17.2188H196.375C204.167 17.2188 210.229 20.6562 214.562 27.5312C215.271 29.0521 215.625 29.8854 215.625 30.0312V30.1562C210.917 32.4479 208.385 33.5938 208.031 33.5938C206.031 28.3646 202.385 25.75 197.094 25.75C189.531 25.75 185.094 29.3542 183.781 36.5625C183.698 37.3125 183.656 38.0312 183.656 38.7188V40.8438C183.656 46.1771 186.115 50.0625 191.031 52.5C192.156 52.8958 193.938 53.25 196.375 53.5625L196.5 53.8125V61.6562C196.5 61.8854 196.344 62 196.031 62C186.906 62 180.365 57.4896 176.406 48.4688C175.385 45.1979 174.875 42.2604 174.875 39.6562C174.875 30.3021 178.958 23.4167 187.125 19C190.083 17.8125 193.125 17.2188 196.25 17.2188ZM243.934 62H238.046V16.176H243.934L259.87 44.08H260.126L276.062 16.176H281.95V62H276.062V34.8L276.318 27.12H276.062L261.726 52.272H258.27L243.934 27.12H243.678L243.934 34.8V62ZM321.25 17.1562H329.344C329.969 17.1562 330.635 18.2396 331.344 20.4062C331.594 20.7812 337.698 34.4792 349.656 61.5C349.594 61.8333 349.26 62 348.656 62H340.812C340.125 62 339.375 60.7083 338.562 58.125C337.062 54.875 332.656 44.7917 325.344 27.875H325.219C318.073 44.5208 313.094 55.8542 310.281 61.875L309.656 62H301.938C301.479 62 301.146 61.875 300.938 61.625C311.562 37.4792 318.125 22.6979 320.625 17.2812L321.25 17.1562ZM377.996 62H372.108V16.176H379.276L401.548 51.824H401.804L401.548 42.992V16.176H407.436V62H401.292L377.996 24.624H377.74L377.996 33.456V62Z" fill="#3A9BD1"/>
<path d="M41.8545 31.3421L42.5973 29.4852L42.5973 29.4852L41.8545 31.3421ZM44.8198 37.3057L42.8909 36.7772L42.8909 36.7772L44.8198 37.3057ZM27.8564 25.7429L27.1136 27.5998L27.1136 27.5998L27.8564 25.7429ZM24.1425 25.7429L24.8853 27.5998L24.8853 27.5998L24.1425 25.7429ZM10.1444 31.3421L9.40159 29.4852L9.40159 29.4852L10.1444 31.3421ZM7.17903 37.3057L5.25012 37.8341L5.25012 37.8341L7.17903 37.3057ZM9.35534 45.2492L7.42643 45.7777L7.92535 47.5987L9.77208 47.2053L9.35534 45.2492ZM15.9793 46.2562L15 48L15 48L15.9793 46.2562ZM21.354 46.2562L22.3333 48L22.3333 48L21.354 46.2562ZM30.6459 46.2562L29.6666 48L29.6666 48L30.6459 46.2562ZM36.0207 46.2562L35.0414 44.5123L35.0414 44.5123L36.0207 46.2562ZM42.6436 45.249L42.2271 47.2051L44.0736 47.5983L44.5725 45.7774L42.6436 45.249ZM41.1117 33.1991C42.5284 33.7658 43.2941 35.3056 42.8909 36.7772L46.7487 37.8341C47.6895 34.4004 45.9029 30.8074 42.5973 29.4852L41.1117 33.1991ZM27.1136 27.5998L41.1117 33.1991L42.5973 29.4852L28.5992 23.8859L27.1136 27.5998ZM24.8853 27.5998C25.6005 27.3137 26.3984 27.3137 27.1136 27.5998L28.5992 23.8859C26.9303 23.2184 25.0686 23.2184 23.3997 23.8859L24.8853 27.5998ZM10.8872 33.1991L24.8853 27.5998L23.3997 23.8859L9.40159 29.4852L10.8872 33.1991ZM9.10795 36.7772C8.70477 35.3056 9.47043 33.7658 10.8872 33.1991L9.40159 29.4852C6.09591 30.8074 4.30935 34.4003 5.25012 37.8341L9.10795 36.7772ZM11.2843 44.7207L9.10795 36.7772L5.25012 37.8341L7.42643 45.7777L11.2843 44.7207ZM16.9586 44.5123C14.4883 43.1251 11.6335 42.719 8.93861 43.2931L9.77208 47.2053C11.5296 46.8309 13.3903 47.096 15 48L16.9586 44.5123ZM20.3747 44.5123C19.3139 45.108 18.0194 45.108 16.9586 44.5123L15 48C17.2772 49.2788 20.0561 49.2788 22.3333 48L20.3747 44.5123ZM31.6252 44.5123C28.1317 42.5504 23.8683 42.5504 20.3747 44.5123L22.3333 48C24.6105 46.7212 27.3894 46.7212 29.6666 48L31.6252 44.5123ZM35.0414 44.5123C33.9806 45.108 32.686 45.108 31.6252 44.5123L29.6666 48C31.9438 49.2788 34.7228 49.2788 37 48L35.0414 44.5123ZM43.0601 43.2928C40.3656 42.7191 37.5112 43.1253 35.0414 44.5123L37 48C38.6094 47.0962 40.4698 46.8309 42.2271 47.2051L43.0601 43.2928ZM42.8909 36.7772L40.7147 44.7205L44.5725 45.7774L46.7487 37.8341L42.8909 36.7772Z" fill="#5C5C5C"/>
<path d="M23.9995 25.3853V28.3491H27.9995V25.3853H23.9995ZM23.9995 28.3491V45.0409H27.9995V28.3491H23.9995Z" fill="#5C5C5C"/>
<path d="M17.9995 19H15.9995V21H17.9995V19ZM33.9995 19V21H35.9995V19H33.9995ZM19.9995 14.5C19.9995 14.7761 19.7757 15 19.4995 15V11C17.5665 11 15.9995 12.567 15.9995 14.5H19.9995ZM19.9995 18.4V14.5H15.9995V18.4H19.9995ZM19.9995 19V18.4H15.9995V19H19.9995ZM17.9995 21H19.9995V17H17.9995V21ZM19.9995 21H31.9995V17H19.9995V21ZM31.9995 21H33.9995V17H31.9995V21ZM31.9995 18.4V19H35.9995V18.4H31.9995ZM31.9995 14.5V18.4H35.9995V14.5H31.9995ZM32.4995 15C32.2234 15 31.9995 14.7761 31.9995 14.5H35.9995C35.9995 12.567 34.4325 11 32.4995 11V15ZM31.7138 15H32.4995V11H31.7138V15ZM29.4281 15H31.7138V11H29.4281V15ZM22.5709 15H29.4281V11H22.5709V15ZM20.2852 15H22.5709V11H20.2852V15ZM19.4995 15H20.2852V11H19.4995V15Z" fill="#5C5C5C"/>
<path d="M39.9995 30.6004L39.2567 32.4573L41.9995 33.5544V30.6004H39.9995ZM27.8565 25.7431L28.5992 23.8862L28.5992 23.8862L27.8565 25.7431ZM24.1426 25.7431L24.8853 27.6001L24.8853 27.6001L24.1426 25.7431ZM11.9995 30.6004H9.99951V33.5544L12.7423 32.4573L11.9995 30.6004ZM14.4995 17C12.0142 17 9.99951 19.0147 9.99951 21.5H13.9995C13.9995 21.2239 14.2234 21 14.4995 21V17ZM15.9995 17H14.4995V21H15.9995V17ZM19.9995 17H15.9995V21H19.9995V17ZM31.9995 17H19.9995V21H31.9995V17ZM35.9995 17H31.9995V21H35.9995V17ZM37.4995 17H35.9995V21H37.4995V17ZM41.9995 21.5C41.9995 19.0147 39.9848 17 37.4995 17V21C37.7757 21 37.9995 21.2239 37.9995 21.5H41.9995ZM41.9995 28V21.5H37.9995V28H41.9995ZM41.9995 29V28H37.9995V29H41.9995ZM41.9995 30.6004V29H37.9995V30.6004H41.9995ZM27.1137 27.6001L39.2567 32.4573L40.7423 28.7434L28.5992 23.8862L27.1137 27.6001ZM24.8853 27.6001C25.6006 27.314 26.3985 27.314 27.1137 27.6001L28.5992 23.8862C26.9304 23.2186 25.0687 23.2186 23.3998 23.8862L24.8853 27.6001ZM12.7423 32.4573L24.8853 27.6001L23.3998 23.8862L11.2567 28.7434L12.7423 32.4573ZM9.99951 29V30.6004H13.9995V29H9.99951ZM9.99951 28V29H13.9995V28H9.99951ZM9.99951 21.5V28H13.9995V21.5H9.99951Z" fill="#5C5C5C"/>
<path d="M7.66676 53L6.68747 51.2562L6.68747 51.2562L7.66676 53ZM14.0208 54.7438C14.9839 55.2847 16.2031 54.9424 16.7439 53.9793C17.2848 53.0162 16.9425 51.797 15.9794 51.2562L14.0208 54.7438ZM2.53411 51.7599C1.46966 51.4649 0.367622 52.0887 0.0726387 53.1531C-0.222345 54.2176 0.401433 55.3196 1.46589 55.6146L2.53411 51.7599ZM22.3334 53L23.3127 54.7438L23.3127 54.7438L22.3334 53ZM29.6668 53L28.6875 54.7438L28.6875 54.7438L29.6668 53ZM15.9794 51.2562C15.0163 50.7153 13.7971 51.0576 13.2563 52.0207C12.7154 52.9838 13.0577 54.203 14.0208 54.7438L15.9794 51.2562ZM37.0001 53L36.0208 51.2562L36.0208 51.2562L37.0001 53ZM44.3334 53L45.3127 51.2562L45.3127 51.2562L44.3334 53ZM50.5341 55.6146C51.5985 55.3197 52.2223 54.2177 51.9274 53.1532C51.6324 52.0887 50.5304 51.4649 49.4659 51.7599L50.5341 55.6146ZM8.64606 54.7438C10.3151 53.8066 12.3518 53.8066 14.0208 54.7438L15.9794 51.2562C13.094 49.6358 9.57286 49.6358 6.68747 51.2562L8.64606 54.7438ZM6.68747 51.2562C5.40894 51.9741 3.91424 52.1423 2.53411 51.7599L1.46589 55.6146C3.85087 56.2755 6.43495 55.9855 8.64606 54.7438L6.68747 51.2562ZM23.3127 54.7438C24.9817 53.8066 27.0185 53.8066 28.6875 54.7438L30.6461 51.2562C27.7607 49.6358 24.2395 49.6358 21.3541 51.2562L23.3127 54.7438ZM21.3541 51.2562C19.6851 52.1934 17.6484 52.1934 15.9794 51.2562L14.0208 54.7438C16.9062 56.3642 20.4273 56.3642 23.3127 54.7438L21.3541 51.2562ZM37.9794 54.7438C39.6484 53.8066 41.6851 53.8066 43.3541 54.7438L45.3127 51.2562C42.4273 49.6358 38.9062 49.6358 36.0208 51.2562L37.9794 54.7438ZM36.0208 51.2562C34.3518 52.1934 32.3151 52.1934 30.6461 51.2562L28.6875 54.7438C31.5729 56.3642 35.094 56.3642 37.9794 54.7438L36.0208 51.2562ZM49.4659 51.7599C48.0859 52.1423 46.5912 51.9741 45.3127 51.2562L43.3541 54.7438C45.5652 55.9855 48.1491 56.2755 50.5341 55.6146L49.4659 51.7599Z" fill="#5C5C5C"/>
<path d="M9.64408 56.1924C8.55714 56.389 7.83536 57.4294 8.03192 58.5164C8.22849 59.6033 9.26898 60.3251 10.3559 60.1285L9.64408 56.1924ZM14.0208 60.7438C14.9839 61.2847 16.2031 60.9424 16.7439 59.9793C17.2848 59.0162 16.9425 57.797 15.9794 57.2562L14.0208 60.7438ZM22.3334 59L21.3541 57.2562L21.3541 57.2562L22.3334 59ZM29.6668 59L28.6875 60.7438L28.6875 60.7438L29.6668 59ZM15.9794 57.2562C15.0163 56.7153 13.7971 57.0576 13.2563 58.0207C12.7154 58.9838 13.0577 60.203 14.0208 60.7438L15.9794 57.2562ZM37.0001 59L36.0208 57.2562L36.0208 57.2562L37.0001 59ZM41.6441 60.1285C42.7311 60.3251 43.7715 59.6032 43.9681 58.5163C44.1646 57.4294 43.4428 56.3889 42.3559 56.1923L41.6441 60.1285ZM10.3559 60.1285C11.5946 59.9045 12.8919 60.1099 14.0208 60.7438L15.9794 57.2562C14.0271 56.1598 11.7838 55.8054 9.64408 56.1924L10.3559 60.1285ZM23.3127 60.7438C24.9817 59.8066 27.0185 59.8066 28.6875 60.7438L30.6461 57.2562C27.7607 55.6358 24.2395 55.6358 21.3541 57.2562L23.3127 60.7438ZM21.3541 57.2562C19.6851 58.1934 17.6484 58.1934 15.9794 57.2562L14.0208 60.7438C16.9062 62.3642 20.4273 62.3642 23.3127 60.7438L21.3541 57.2562ZM37.9794 60.7438C39.1083 60.1099 40.4055 59.9045 41.6441 60.1285L42.3559 56.1923C40.2162 55.8055 37.9731 56.1598 36.0208 57.2562L37.9794 60.7438ZM36.0208 57.2562C34.3518 58.1934 32.3151 58.1934 30.6461 57.2562L28.6875 60.7438C31.5729 62.3642 35.094 62.3642 37.9794 60.7438L36.0208 57.2562Z" fill="#5C5C5C"/>
</svg>
